<svg width="1433" height="779" viewBox="0 0 1433 779" fill="none" xmlns="http://www.w3.org/2000/svg">
<path d="M176.271 680.272C386.949 800.884 500.532 1216.07 415.919 1428.32C322.438 1662.71 -262.1 1627.11 -329.172 1569.95C-396.245 1512.8 152.096 1329.91 77.2712 1114.24C-5.83065 874.855 -423.114 874.526 -411.749 772.308C-400.581 671.732 -67.2537 540.871 176.271 680.272Z" stroke="black" stroke-opacity="0.04" stroke-width="5" stroke-miterlimit="10"/>
<path d="M242.225 650.777C489.166 755.886 596.311 1258.44 487.458 1495.2C364.086 1763.36 -270.969 1663.96 -365.239 1621.53C-446.502 1585 81.0144 1339.04 17.9489 1078.44C-50.5033 795.302 -426.859 749.317 -398.743 683.624C-368.524 613.201 -47.5473 527.734 242.225 650.777Z" stroke="black" stroke-opacity="0.04" stroke-width="5" stroke-miterlimit="10"/>
<path d="M308.178 621.349C590.988 710.626 691.892 1300.75 558.995 1562.01C405.47 1864.2 -274.783 1699.96 -401.308 1673.16C-493.278 1653.45 9.47183 1348.51 -41.309 1042.51C-95.5058 716.144 -439.081 620.429 -385.738 595.4C-345.928 551.057 -28.8931 514.86 308.178 621.349Z" stroke="black" stroke-opacity="0.04" stroke-width="5" stroke-miterlimit="10"/>
<path d="M374.136 591.656C692.616 665.758 787.28 1342.79 630.339 1628.69C446.398 1964.25 -287.591 1783.4 -437.569 1724.6C-531.51 1687.75 -62.5265 1357.84 -100.76 1006.64C-141.03 637.05 -447.226 493.313 -372.927 506.912C-318.598 490.685 -10.169 502.379 374.136 591.656Z" stroke="black" stroke-opacity="0.04" stroke-width="5" stroke-miterlimit="10"/>
<path d="M440.097 562.356C794.118 621.48 882.541 1385.1 702.081 1695.76C487.659 2064.96 -283.316 1823.07 -473.432 1776.37C-580.117 1750.09 -134.324 1367.62 -159.878 971.033C-186.156 558.217 -462.067 383.014 -359.717 418.685C-294.155 441.48 8.42751 490.225 440.097 562.356Z" stroke="black" stroke-opacity="0.04" stroke-width="5" stroke-miterlimit="10"/>
<path d="M505.979 532.859C895.605 577.333 977.722 1427.27 773.613 1762.57C528.512 2165.33 -280.236 1792.39 -509.571 1828.26C-628.41 1846.72 -206.595 1377.48 -219.208 935.427C-232.346 479.516 -472.126 252.809 -346.718 330.59C-268.675 378.677 26.9447 478.268 505.979 532.859Z" stroke="black" stroke-opacity="0.04" stroke-width="5" stroke-miterlimit="10"/>
<path d="M571.931 503.43C997.098 533.255 1072.84 1469.12 845.215 1829.45C569.304 2265.65 -283.065 1819.46 -545.575 1879.57C-674.005 1909 -278.795 1386.87 -278.401 899.363C-278.007 400.095 -480.079 122.869 -333.649 241.905C-241.81 316.598 45.4664 466.445 571.931 503.43Z" stroke="black" stroke-opacity="0.04" stroke-width="5" stroke-miterlimit="10"/>
<path d="M637.9 473.933C1098.61 489.305 1167.78 1511.36 916.768 1896.32C610.243 2365.96 -286.6 1845.54 -581.628 1931.2C-719.977 1971.34 -351.176 1396.33 -337.709 863.56C-323.979 321.197 -487.489 -6.02101 -320.629 153.548C-214.469 254.978 64.1361 454.817 637.9 473.933Z" stroke="black" stroke-opacity="0.04" stroke-width="5" stroke-miterlimit="10"/>
<path d="M703.85 444.436C1200.1 445.421 1263.03 1553.4 988.301 1963.2C651.033 2466.27 -290.744 1871.23 -617.699 1982.9C-766.297 2033.69 -423.641 1405.99 -396.97 827.821C-369.97 242.233 -494.787 -134.321 -307.627 65.1895C-186.883 193.751 82.59 443.254 703.85 444.436Z" stroke="black" stroke-opacity="0.04" stroke-width="5" stroke-miterlimit="10"/>
<path d="M769.807 415.007C1301.92 401.868 1358.09 1595.38 1059.84 2030.01C691.961 2566.46 -295.408 1896.19 -653.764 2034.41C-812.873 2095.77 -496.1 1415.45 -456.225 791.954C-416.02 163.139 -502.21 -262.487 -294.554 -23.298C-159.226 132.723 101.182 431.824 769.807 415.007Z" stroke="black" stroke-opacity="0.04" stroke-width="5" stroke-miterlimit="10"/>
<path d="M835.763 385.51C1403.22 357.853 1453.28 1637.36 1131.38 2096.88C732.493 2666.7 -300.729 1921.09 -689.829 2086.04C-859.646 2157.91 -568.691 1424.97 -515.545 756.151C-462.137 84.0441 -509.37 -390.326 -281.546 -111.656C-131.503 71.8251 119.839 420.459 835.763 385.51Z" stroke="black" stroke-opacity="0.04" stroke-width="5" stroke-miterlimit="10"/>
<path d="M901.722 356.013C1504.79 314.1 1548.08 1679.34 1202.93 2163.76C773.161 2766.89 -305.784 1945.79 -725.891 2137.48C-906.482 2219.99 -641.213 1434.56 -574.797 720.15C-508.25 4.8169 -516.659 -518.232 -268.536 -200.211C-103.843 10.9921 138.499 409.093 901.722 356.013Z" stroke="black" stroke-opacity="0.04" stroke-width="5" stroke-miterlimit="10"/>
<path d="M967.669 326.583C1606.4 270.415 1643.06 1721.58 1274.46 2230.57C813.816 2867.07 -311.377 1970.42 -762.032 2189.25C-953.593 2282.27 -713.878 1443.96 -634.127 684.479C-554.376 -74.9996 -523.96 -645.742 -255.537 -288.634C-76.1293 -49.7735 157.147 397.86 967.669 326.583Z" stroke="black" stroke-opacity="0.04" stroke-width="5" stroke-miterlimit="10"/>
<path d="M1033.62 297.086C1708.03 226.728 1738.05 1763.23 1346.06 2297.44C854.479 2967.51 -317.224 1995.25 -798.032 2240.88C-1000.7 2344.48 -786.47 1453.42 -693.383 648.676C-600.559 -153.241 -531.318 -773.253 -242.465 -376.86C-48.4079 -110.475 175.803 386.56 1033.62 297.086Z" stroke="black" stroke-opacity="0.04" stroke-width="5" stroke-miterlimit="10"/>
<path d="M1099.59 267.591C1809.67 183.044 1832 1804.42 1417.42 2364.32C893.644 3066.45 -323.453 2019.43 -834.283 2292.45C-1048.05 2406.69 -859.312 1462.88 -752.824 612.875C-646.926 -232.334 -538.861 -900.827 -229.643 -465.281C-20.6736 -171.173 194.603 375.394 1099.59 267.591Z" stroke="black" stroke-opacity="0.04" stroke-width="5" stroke-miterlimit="10"/>
<path d="M1165.54 238.16C1911.29 139.423 1927.06 1846.39 1489.14 2431.06C934.629 3166.83 -329.308 2043.47 -870.159 2343.95C-1095.16 2468.77 -931.78 1472.21 -811.89 576.808C-692.985 -311.758 -546.029 -1028.54 -216.447 -553.969C7.04142 -231.875 213.318 364.159 1165.54 238.16Z" stroke="black" stroke-opacity="0.04" stroke-width="5" stroke-miterlimit="10"/>
<path d="M1231.49 208.662C2013.24 95.8014 2022.18 1888.44 1560.68 2498C975.423 3266.61 -335.484 2068.3 -906.227 2395.65C-1142.72 2531.18 -1006.01 1481.6 -871.146 541.201C-740.745 -390.853 -553.389 -1155.78 -203.441 -642.064C34.7623 -292.511 232.105 352.99 1231.49 208.662Z" stroke="black" stroke-opacity="0.04" stroke-width="5" stroke-miterlimit="10"/>
<path d="M1297.45 179.17C2114.87 53.6302 2117.3 1930.48 1632.22 2564.88C1016.21 3367.26 -341.795 2092.75 -942.362 2447.29C-1189.83 2593.39 -1078.35 1491.06 -930.471 505.402C-786.669 -469.944 -560.75 -1283.16 -190.372 -730.483C62.4811 -353.142 251.152 343.666 1297.45 179.17Z" stroke="black" stroke-opacity="0.04" stroke-width="5" stroke-miterlimit="10"/>
<path d="M1363.41 149.737C2216.51 9.67873 2212.3 1972.46 1703.77 2631.76C1057.09 3467.5 -348.155 2117.12 -978.415 2498.92C-1237.18 2655.67 -1150.73 1500.39 -989.714 469.597C-832.576 -549.042 -568.161 -1410.61 -177.352 -818.843C90.4128 -413.451 269.886 332.101 1363.41 149.737Z" stroke="black" stroke-opacity="0.04" stroke-width="5" stroke-miterlimit="10"/>
<path d="M1429.37 120.241C2318.13 -34.2689 2307.49 2014.5 1775.31 2698.57C1097.88 3567.56 -354.661 2141.55 -1014.48 2550.49C-1284.61 2717.95 -1223.45 1510.05 -1048.97 433.992C-878.169 -627.938 -574.47 -1538.51 -164.347 -907.068C118.724 -474.873 288.607 320.474 1429.37 120.241Z" stroke="black" stroke-opacity="0.04" stroke-width="5" stroke-miterlimit="10"/>
<path d="M1495.32 90.7437C2419.75 -78.4162 2402.8 2056.61 1846.84 2765.44C1138.67 3668 -361.173 2165.99 -1050.56 2601.86C-1332.12 2780.02 -1295.53 1519.24 -1108.3 397.728C-924.426 -707.297 -582.427 -1665.69 -151.349 -995.69C146.044 -535.181 307.19 309.173 1495.32 90.7437Z" stroke="black" stroke-opacity="0.04" stroke-width="5" stroke-miterlimit="10"/>
<path d="M-138.271 -1084.05C173.378 -595.553 326.114 297.283 1561.28 61.3132C2521.45 -122.168 2497.73 2098.52 1918.45 2832.32C1179.47 3768.31 -367.671 2190.43 -1086.62 2653.7C-1668 3028.41 -1049.63 -2512.68 -138.271 -1084.05Z" stroke="black" stroke-opacity="0.04" stroke-width="5" stroke-miterlimit="10"/>
</svg>
