<svg width="1440" height="552" viewBox="0 0 1440 552" fill="none" xmlns="http://www.w3.org/2000/svg">
<g clip-path="url(#clip0_2_244)">
<path d="M0 -5H1440V547H0V-5Z" fill="black"/>
<path d="M1422.07 -1877.31C1933.2 -1791.95 2060.86 -689.456 1800.32 -240.929C1490.74 292.105 377.63 -57.1176 103.146 -124.553C-50.8841 -162.491 592.74 -714.685 555.845 -1287.27C517.907 -1883.28 119.554 -2136.24 267.324 -2084.73C361.98 -2051.82 798.841 -1981.45 1422.07 -1877.31Z" stroke="white" stroke-opacity="0.08" stroke-width="4.38131" stroke-miterlimit="10"/>
<path d="M1517.19 -1919.89C2079.72 -1855.68 2198.28 -628.565 1903.59 -144.472C1549.72 437.029 382.075 -101.412 50.9679 -49.6256C-120.609 -22.9739 488.397 -700.459 470.187 -1338.68C451.218 -1996.91 105.03 -2324.22 286.091 -2211.92C398.768 -2142.5 825.575 -1998.71 1517.19 -1919.89Z" stroke="white" stroke-opacity="0.08" stroke-width="4.38131" stroke-miterlimit="10"/>
<path d="M1612.41 -1962.38C2226.25 -1919.32 2335.61 -568.147 2006.97 -47.9166C1608.62 581.861 377.992 -62.3334 -1.01287 24.4506C-186.437 66.9416 384.156 -686.894 384.725 -1390.75C385.295 -2111.58 93.5486 -2511.83 304.96 -2339.96C437.555 -2232.12 852.316 -2015.78 1612.41 -1962.38Z" stroke="white" stroke-opacity="0.08" stroke-width="4.38131" stroke-miterlimit="10"/>
<path d="M1707.66 -2004.97C2372.81 -1982.77 2472.68 -507.161 2110.28 48.6367C1667.73 726.691 372.889 -24.6792 -53.0645 98.9999C-252.81 156.951 279.655 -673.236 299.098 -1442.44C318.921 -2225.49 82.8496 -2697.91 323.758 -2467.53C477.029 -2321.09 879.271 -2032.57 1707.66 -2004.97Z" stroke="white" stroke-opacity="0.08" stroke-width="4.38131" stroke-miterlimit="10"/>
<path d="M1802.87 -2047.56C2519.34 -2046.13 2610.2 -446.461 2213.56 145.188C1726.62 871.519 366.905 12.4041 -105.143 173.642C-319.685 246.958 175.032 -659.295 213.539 -1494.03C252.521 -2339.49 72.3135 -2883.15 342.53 -2595.1C516.857 -2409.49 905.915 -2049.26 1802.87 -2047.56Z" stroke="white" stroke-opacity="0.08" stroke-width="4.38131" stroke-miterlimit="10"/>
<path d="M1898.1 -2090.05C2666.35 -2109.01 2747.44 -385.852 2316.84 241.649C1785.71 1016.16 360.171 48.4472 -157.213 248.003C-386.93 336.589 70.417 -645.636 127.989 -1545.82C186.034 -2453.68 61.5962 -3068.19 361.404 -2722.86C556.787 -2497.6 932.757 -2065.76 1898.1 -2090.05Z" stroke="white" stroke-opacity="0.08" stroke-width="4.38131" stroke-miterlimit="10"/>
<path d="M1993.32 -2132.63C2812.6 -2172.56 2884.88 -325.247 2420.13 338.2C1844.23 1160.89 352.489 84.3922 -209.284 322.55C-454.46 426.312 -34.3877 -631.884 42.3427 -1597.51C119.452 -2567.88 51.2581 -3252.76 380.184 -2850.43C596.812 -2585.52 959.693 -2082.17 1993.32 -2132.63Z" stroke="white" stroke-opacity="0.08" stroke-width="4.38131" stroke-miterlimit="10"/>
<path d="M2088.56 -2175.22C2959.24 -2235.73 3021.74 -264.642 2523.42 434.753C1902.94 1305.53 345.191 120.054 -261.349 396.814C-522.08 515.941 -139.092 -618.038 -43.2031 -1649.49C52.8759 -2682.27 40.7355 -3437.43 398.969 -2978.28C636.748 -2673.35 986.635 -2098.58 2088.56 -2175.22Z" stroke="white" stroke-opacity="0.08" stroke-width="4.38131" stroke-miterlimit="10"/>
<path d="M2183.77 -2217.71C3105.95 -2298.8 3158.88 -203.656 2626.7 531.211C1961.64 1450.17 337.116 155.621 -313.527 471.553C-590.098 605.855 -244.005 -604.474 -128.862 -1700.99C-13.7191 -2797.5 30.1946 -3621.52 417.735 -3105.94C676.76 -2761.08 1013.56 -2114.8 2183.77 -2217.71Z" stroke="white" stroke-opacity="0.08" stroke-width="4.38131" stroke-miterlimit="10"/>
<path d="M2278.99 -2260.3C3252.68 -2361.88 3296.02 -143.525 2730.08 627.763C2020.35 1595.19 328.674 191.472 -365.504 546.101C-658.104 695.673 -348.811 -590.818 -214.415 -1752.68C-80.3972 -2910.47 19.5703 -3805.62 436.608 -3233.32C716.783 -2848.72 1040.49 -2131.12 2278.99 -2260.3Z" stroke="white" stroke-opacity="0.08" stroke-width="4.38131" stroke-miterlimit="10"/>
<path d="M2374.23 -2302.88C3399.42 -2424.95 3431.67 -84.0526 2833.1 724.32C2076.89 1738.03 319.68 226.378 -417.842 620.558C-726.471 785.495 -453.978 -577.157 -300.233 -1804.37C-147.341 -3024.66 8.68044 -3989.81 455.12 -3360.98C756.825 -2936.36 1067.64 -2147.24 2374.23 -2302.88Z" stroke="white" stroke-opacity="0.08" stroke-width="4.38131" stroke-miterlimit="10"/>
<path d="M2469.45 -2345.37C3546.14 -2487.93 3568.9 -23.4479 2936.66 820.681C2136.06 1882.96 311.227 261.09 -469.639 694.915C-794.487 875.123 -558.605 -563.691 -385.511 -1856.44C-213.84 -3139.33 -1.66936 -4174.19 474.173 -3489.02C796.839 -3023.99 1094.66 -2163.46 2469.45 -2345.37Z" stroke="white" stroke-opacity="0.08" stroke-width="4.38131" stroke-miterlimit="10"/>
<path d="M2564.67 -2387.96C3693.34 -2550.9 3706.24 37.2521 3039.94 917.328C2194.96 2027.03 302.31 296.94 -521.712 769.558C-863.157 965.225 -665.783 -550.129 -471.064 -1907.85C-282.795 -3253.52 -12.2943 -4357.91 492.95 -3616.21C836.862 -3111.54 1121.78 -2179.58 2564.67 -2387.96Z" stroke="white" stroke-opacity="0.08" stroke-width="4.38131" stroke-miterlimit="10"/>
<path d="M2659.89 -2430.54C3840.06 -2611.79 3843.57 97.9585 3143.23 1013.89C2253.86 2172.33 293.2 332.228 -573.882 844.111C-931.167 1055.05 -770.213 -536.466 -556.715 -1959.54C-349.097 -3367.71 -22.9219 -4541.81 511.82 -3743.87C876.882 -3199.08 1149.28 -2193.05 2659.89 -2430.54Z" stroke="white" stroke-opacity="0.08" stroke-width="4.38131" stroke-miterlimit="10"/>
<path d="M2755.13 -2473.04C3986.8 -2675.25 3980.73 158.561 3246.53 1110.44C2312.87 2317.07 284.017 367.412 -625.935 918.657C-999.534 1144.96 -874.716 -523.002 -642.249 -2011.23C-415.377 -3481.91 -33.6223 -4725.82 530.616 -3871.44C917.209 -3286.15 1176.33 -2209.74 2755.13 -2473.04Z" stroke="white" stroke-opacity="0.08" stroke-width="4.38131" stroke-miterlimit="10"/>
<path d="M2850.36 -2515.62C4133.53 -2738.7 4118.16 219.264 3349.81 1206.89C2371.76 2461.52 274.624 402.696 -678.009 993.112C-1068.02 1234.87 -979.714 -509.058 -727.803 -2062.63C-481.204 -3595.82 -42.7307 -4910.48 549.393 -3998.82C958.084 -3374.83 1203.36 -2226.53 2850.36 -2515.62Z" stroke="white" stroke-opacity="0.08" stroke-width="4.38131" stroke-miterlimit="10"/>
<path d="M2945.57 -2558.21C4280.24 -2802.44 4255.77 280.059 3453.09 1303.45C2430.65 2606.54 265.221 437.977 -730.092 1067.28C-1136.6 1324.5 -1083.77 -495.782 -813.462 -2114.99C-547.988 -3710.4 -54.2199 -5094.1 568.159 -4126.77C997.527 -3461.9 1230.18 -2242.84 2945.57 -2558.21Z" stroke="white" stroke-opacity="0.08" stroke-width="4.38131" stroke-miterlimit="10"/>
<path d="M587.042 -4254.34C1036.99 -3549.06 1257.51 -2260.01 3040.8 -2600.7C4427.07 -2865.6 4392.83 340.571 3556.48 1400C2489.56 2751.37 255.84 473.26 -782.155 1142.11C-1621.54 1683.12 -728.756 -6316.95 587.042 -4254.34Z" stroke="white" stroke-opacity="0.08" stroke-width="4.38131" stroke-miterlimit="10"/>
</g>
<defs>
<clipPath id="clip0_2_244">
<rect width="1456" height="552" fill="white"/>
</clipPath>
</defs>
</svg>
