<svg width="202" height="66" viewBox="0 0 202 66" fill="none" xmlns="http://www.w3.org/2000/svg">
<path d="M197.263 1.10107H5.23183C3.41943 1.10107 1.9502 2.71676 1.9502 4.7098V60.6451C1.9502 62.6382 3.41943 64.2538 5.23183 64.2538H197.263C199.076 64.2538 200.545 62.6382 200.545 60.6451V4.7098C200.545 2.71676 199.076 1.10107 197.263 1.10107Z" stroke="black" stroke-width="2"/>
<path d="M48.5535 31.1595C48.5155 26.1639 52.2744 23.7289 52.4494 23.6201C50.3188 20.2061 47.0164 19.7375 45.8522 19.704C43.0748 19.3861 40.3887 21.5283 38.9735 21.5283C37.5353 21.5283 35.359 19.7375 33.0078 19.7878C29.9869 19.8379 27.1639 21.7626 25.6192 24.7415C22.4233 30.8248 24.805 39.7614 27.8715 44.6817C29.4009 47.0916 31.1892 49.7777 33.5328 49.6855C35.8232 49.5851 36.683 48.0789 39.4452 48.0789C42.1845 48.0789 42.9911 49.6855 45.3804 49.627C47.8382 49.5851 49.3905 47.2087 50.8667 44.7821C52.6397 42.0208 53.3473 39.3012 53.3778 39.1674C53.3169 39.1255 48.5991 37.1424 48.5535 31.1595ZM44.0412 16.4657C45.2739 14.7671 46.1185 12.466 45.8826 10.123C44.1021 10.2067 41.8649 11.4786 40.5865 13.1354C39.4528 14.5998 38.4331 16.9929 38.6995 19.2438C40.6931 19.4028 42.7552 18.1309 44.0412 16.4657Z" fill="black"/>
<path d="M81.7446 49.3258H78.5411L76.7834 43.2676H70.6883L69.0143 49.3258H65.8945L71.9363 28.691H75.6648L81.7446 49.3258ZM76.2583 40.7238L74.668 35.3351C74.5006 34.7828 74.181 33.4858 73.7244 31.444H73.6712C73.4886 32.3227 73.1842 33.6197 72.7809 35.3351L71.221 40.7238H76.2583ZM97.2527 41.7029C97.2527 44.23 96.6283 46.2298 95.3805 47.7025C94.2615 49.0079 92.8692 49.6606 91.2104 49.6606C89.4145 49.6606 88.1289 48.9577 87.3454 47.5519V55.359H84.3394V39.3348C84.3394 37.745 84.3017 36.1132 84.2254 34.448H86.8729L87.041 36.8078H87.0935C88.0985 35.0338 89.6204 34.1384 91.6591 34.1384C93.2573 34.1384 94.5888 34.833 95.6545 36.222C96.7194 37.6111 97.2527 39.4436 97.2527 41.7029ZM94.1934 41.8283C94.1934 40.3808 93.8964 39.1842 93.3032 38.247C92.6559 37.268 91.7814 36.7826 90.6853 36.7826C89.9478 36.7826 89.2701 37.0588 88.6687 37.5943C88.0682 38.1382 87.6719 38.8495 87.4898 39.7197C87.4061 40.0461 87.3602 40.3891 87.3528 40.7238V43.209C87.3528 44.2885 87.6572 45.2005 88.2585 45.9537C88.8591 46.6984 89.6434 47.0749 90.609 47.0749C91.7428 47.0749 92.6256 46.5896 93.2573 45.6357C93.8734 44.6651 94.1934 43.4015 94.1934 41.8283ZM112.821 41.7029C112.821 44.23 112.197 46.2298 110.949 47.7025C109.83 49.0079 108.438 49.6606 106.779 49.6606C104.983 49.6606 103.697 48.9577 102.913 47.5519V55.359H99.9075V39.3348C99.9075 37.745 99.8698 36.1132 99.7935 34.448H102.442L102.609 36.8078H102.662C103.667 35.0338 105.188 34.1384 107.228 34.1384C108.826 34.1384 110.158 34.833 111.223 36.222C112.281 37.6111 112.821 39.4436 112.821 41.7029ZM109.754 41.8283C109.754 40.3808 109.458 39.1842 108.864 38.247C108.217 37.268 107.342 36.7826 106.247 36.7826C105.508 36.7826 104.831 37.0588 104.222 37.5943C103.621 38.1382 103.225 38.8495 103.043 39.7197C102.951 40.1297 102.899 40.4644 102.899 40.7238V43.209C102.899 44.2885 103.203 45.2005 103.804 45.9537C104.405 46.6984 105.188 47.0749 106.163 47.0749C107.296 47.0749 108.179 46.5896 108.811 45.6357C109.442 44.6651 109.754 43.4015 109.754 41.8283ZM130.223 43.5438C130.223 45.301 129.668 46.7319 128.557 47.828C127.34 49.033 125.627 49.6355 123.443 49.6355C121.427 49.6355 119.807 49.2087 118.581 48.3468L119.273 45.5939C120.59 46.4557 122.043 46.8825 123.618 46.8825C124.752 46.8825 125.635 46.598 126.266 46.0373C126.898 45.4767 127.217 44.7236 127.217 43.7864C127.217 42.9497 126.951 42.2468 126.434 41.6694C125.916 41.1004 125.056 40.5648 123.847 40.0796C120.56 38.7323 118.916 36.7575 118.916 34.172C118.916 32.4816 119.494 31.0927 120.658 30.0132C121.815 28.9337 123.352 28.3899 125.27 28.3899C126.974 28.3899 128.397 28.7162 129.531 29.3689L128.778 32.0633C127.712 31.4274 126.517 31.1177 125.17 31.1177C124.113 31.1177 123.276 31.4022 122.682 31.9712C122.18 32.4817 121.929 33.1009 121.929 33.8373C121.929 34.6489 122.219 35.3267 122.797 35.8538C123.299 36.3392 124.204 36.8747 125.521 37.4437C127.134 38.1633 128.321 38.9917 129.082 39.9541C129.843 40.9163 130.223 42.1129 130.223 43.5438ZM140.191 36.9333H136.873V44.1546C136.873 45.9955 137.459 46.9075 138.632 46.9075C139.171 46.9075 139.613 46.8574 139.97 46.757L140.054 49.2673C139.461 49.51 138.685 49.6355 137.718 49.6355C136.531 49.6355 135.603 49.2338 134.933 48.4389C134.264 47.6439 133.929 46.3051 133.929 44.4308V36.9333H131.958V34.4564H133.929V31.7286L136.882 30.7496V34.4564H140.199L140.191 36.9333ZM155.113 41.7698C155.113 44.0542 154.52 45.937 153.332 47.4013C152.092 48.9158 150.441 49.6689 148.379 49.6689C146.393 49.6689 144.81 48.941 143.63 47.5017C142.451 46.0541 141.866 44.2216 141.866 42.0209C141.866 39.7114 142.474 37.8286 143.692 36.3559C144.909 34.8832 146.545 34.1552 148.607 34.1552C150.593 34.1552 152.191 34.8832 153.393 36.3308C154.534 37.7282 155.113 39.544 155.113 41.7698ZM151.994 41.8451C151.994 40.4812 151.727 39.3097 151.186 38.3391C150.555 37.1592 149.657 36.5651 148.486 36.5651C147.283 36.5651 146.355 37.1592 145.731 38.3391C145.191 39.318 144.924 40.5063 144.924 41.9121C144.924 43.276 145.191 44.4475 145.731 45.4265C146.378 46.6063 147.291 47.2005 148.463 47.2005C149.612 47.2005 150.509 46.598 151.164 45.4014C151.72 44.3889 151.994 43.209 151.994 41.8451ZM164.891 37.36C164.579 37.3015 164.259 37.268 163.94 37.268C162.882 37.268 162.068 37.7031 161.49 38.5818C160.988 39.3599 160.737 40.3389 160.737 41.5188V49.3258H157.731V39.134C157.731 37.5692 157.708 36.0128 157.647 34.448H160.265L160.371 37.2931H160.454C160.774 36.314 161.269 35.5275 161.962 34.9334C162.585 34.4146 163.354 34.1384 164.137 34.1384C164.419 34.1384 164.662 34.1636 164.891 34.1971V37.36ZM178.337 41.1841C178.344 41.6862 178.306 42.1882 178.23 42.6819H169.206C169.236 44.1546 169.677 45.2759 170.514 46.0541C171.275 46.7486 172.257 47.0917 173.467 47.0917C174.806 47.0917 176.023 46.8574 177.119 46.3888L177.591 48.6815C176.312 49.2924 174.798 49.602 173.056 49.602C170.956 49.602 169.312 48.9242 168.11 47.5687C166.915 46.213 166.314 44.3889 166.314 42.1045C166.314 39.8619 166.869 37.996 167.988 36.5066C169.152 34.9166 170.735 34.1217 172.721 34.1217C174.669 34.1217 176.145 34.9166 177.15 36.5066C177.933 37.7701 178.337 39.3264 178.337 41.1841ZM175.468 40.3305C175.491 39.3516 175.293 38.5064 174.882 37.7868C174.364 36.8663 173.558 36.4061 172.485 36.4061C171.504 36.4061 170.705 36.858 170.088 37.7533C169.586 38.4646 169.289 39.3264 169.198 40.3222L175.468 40.3305Z" fill="black"/>
<path d="M69.8211 21.4026C68.9842 21.4026 68.2613 21.3607 67.6601 21.2854V11.3027C68.5048 11.1604 69.357 11.0851 70.2093 11.0935C73.6562 11.0935 75.2466 12.9595 75.2466 15.997C75.2389 19.503 73.3671 21.4026 69.8211 21.4026ZM70.3309 12.3738C69.8668 12.3738 69.4711 12.4073 69.144 12.4825V20.0637C69.319 20.0972 69.6614 20.1055 70.1408 20.1055C72.4007 20.1055 73.6867 18.6914 73.6867 16.0472C73.679 13.6792 72.5149 12.3738 70.3309 12.3738ZM80.1926 21.4778C78.2522 21.4778 76.989 19.8796 76.989 17.7124C76.989 15.453 78.275 13.8465 80.2991 13.8465C82.2166 13.8465 83.5028 15.3694 83.5028 17.5952C83.5028 19.8796 82.1786 21.4778 80.1926 21.4778ZM80.2458 15.0347C79.1805 15.0347 78.4957 16.1308 78.4957 17.6705C78.4957 19.1767 79.1958 20.2728 80.2306 20.2728C81.2731 20.2728 81.9655 19.1014 81.9655 17.637C81.9731 16.1476 81.2883 15.0347 80.2458 15.0347ZM94.5816 13.9971L92.5044 21.3104H91.1499L90.2901 18.1391C90.0768 17.3609 89.8946 16.5744 89.7576 15.7794H89.7273C89.6206 16.5744 89.4147 17.3777 89.194 18.1391L88.2809 21.3104H86.9116L84.9558 13.9971H86.4776L87.2308 17.4697C87.4063 18.2981 87.5581 19.0763 87.6804 19.821H87.7107C87.8174 19.2018 87.9995 18.4403 88.2587 17.4865L89.2022 13.9971H90.4041L91.3098 17.4111C91.5305 18.2395 91.7053 19.0512 91.8423 19.821H91.88C91.9793 19.0679 92.1237 18.273 92.3296 17.4111L93.1361 13.9971H94.5816ZM102.244 21.3104H100.768V17.1099C100.768 15.8129 100.319 15.1686 99.4286 15.1686C98.554 15.1686 97.9527 15.997 97.9527 16.9592V21.3104H96.4768V16.089C96.4768 15.4447 96.4612 14.7502 96.4234 13.9971H97.7246L97.7927 15.1267H97.8304C98.2267 14.3486 99.0332 13.8465 99.9389 13.8465C101.331 13.8465 102.252 15.018 102.252 16.9341L102.244 21.3104ZM106.315 21.3104H104.839V10.6416H106.315V21.3104ZM111.71 21.4778C109.77 21.4778 108.506 19.8796 108.506 17.7124C108.506 15.453 109.793 13.8465 111.817 13.8465C113.734 13.8465 115.02 15.3694 115.02 17.5952C115.02 19.8796 113.689 21.4778 111.71 21.4778ZM111.763 15.0347C110.698 15.0347 110.013 16.1308 110.013 17.6705C110.013 19.1767 110.713 20.2728 111.748 20.2728C112.791 20.2728 113.483 19.1014 113.483 17.637C113.483 16.1476 112.806 15.0347 111.763 15.0347ZM120.849 21.3104L120.742 20.4653H120.704C120.255 21.1431 119.593 21.4694 118.757 21.4694C117.561 21.4694 116.717 20.549 116.717 19.319C116.717 17.5115 118.14 16.5827 120.605 16.5827V16.4489C120.605 15.4865 120.141 15.0012 119.228 15.0012C118.574 15.0012 117.995 15.1854 117.493 15.5451L117.196 14.4741C117.813 14.0556 118.581 13.8381 119.479 13.8381C121.214 13.8381 122.096 14.8423 122.096 16.8588V19.5533C122.096 20.2896 122.127 20.8669 122.196 21.3021L120.849 21.3104ZM120.644 17.6705C118.999 17.6705 118.178 18.1056 118.178 19.1432C118.178 19.9131 118.604 20.2896 119.19 20.2896C119.944 20.2896 120.644 19.662 120.644 18.8001V17.6705ZM129.257 21.3104L129.189 20.139H129.15C128.725 21.026 128.009 21.4778 127.012 21.4778C125.407 21.4778 124.22 19.9298 124.22 17.7458C124.22 15.4614 125.453 13.8465 127.134 13.8465C128.025 13.8465 128.656 14.1728 129.006 14.8423H129.036V10.6416H130.512V19.3357C130.512 20.0386 130.528 20.708 130.566 21.3021H129.257V21.3104ZM129.044 17.0095C129.044 15.9886 128.428 15.11 127.484 15.11C126.388 15.11 125.719 16.1811 125.719 17.6789C125.719 19.1516 126.411 20.1641 127.454 20.1641C128.382 20.1641 129.044 19.2771 129.044 18.2228V17.0095ZM139.903 21.4778C137.962 21.4778 136.699 19.8796 136.699 17.7124C136.699 15.453 137.985 13.8465 140.009 13.8465C141.927 13.8465 143.212 15.3694 143.212 17.5952C143.212 19.8796 141.889 21.4778 139.903 21.4778ZM139.956 15.0347C138.89 15.0347 138.205 16.1308 138.205 17.6705C138.205 19.1767 138.906 20.2728 139.94 20.2728C140.983 20.2728 141.676 19.1014 141.676 17.637C141.683 16.1476 140.998 15.0347 139.956 15.0347ZM151.164 21.3104H149.688V17.1099C149.688 15.8129 149.239 15.1686 148.349 15.1686C147.473 15.1686 146.873 15.997 146.873 16.9592V21.3104H145.396V16.089C145.396 15.4447 145.381 14.7502 145.343 13.9971H146.644L146.713 15.1267H146.751C147.147 14.3486 147.953 13.8465 148.858 13.8465C150.251 13.8465 151.172 15.018 151.172 16.9341V21.3104H151.164ZM161.102 15.2187H159.473V18.7667C159.473 19.6704 159.755 20.1223 160.333 20.1223C160.592 20.1223 160.812 20.0888 160.988 20.0469L161.026 21.277C160.737 21.3942 160.356 21.4611 159.877 21.4611C158.712 21.4611 158.012 20.7582 158.012 18.9005V15.2104H157.038V13.9887H158.012V12.6499L159.466 12.1646V13.9887H161.095L161.102 15.2187ZM168.932 21.3104H167.455V17.1434C167.455 15.838 167.006 15.177 166.116 15.177C165.348 15.177 164.64 15.746 164.64 16.9091V21.3188H163.164V10.6416H164.64V15.0347H164.671C165.135 14.2398 165.812 13.8465 166.672 13.8465C168.08 13.8465 168.939 15.0514 168.939 16.9592L168.932 21.3104ZM176.944 18.0471H172.508C172.538 19.4278 173.368 20.2143 174.601 20.2143C175.255 20.2143 175.864 20.0972 176.396 19.8712L176.625 21.0008C175.993 21.3021 175.255 21.4527 174.395 21.4527C172.318 21.4527 171.086 20.0051 171.086 17.7709C171.086 15.5284 172.348 13.8465 174.228 13.8465C175.924 13.8465 176.99 15.2271 176.99 17.3191C177.005 17.5534 176.99 17.8044 176.944 18.0471ZM175.59 16.884C175.59 15.7543 175.073 14.9594 174.129 14.9594C173.277 14.9594 172.607 15.771 172.515 16.884H175.59Z" fill="black"/>
</svg>
