<svg width="73" height="73" viewBox="0 0 73 73" fill="none" xmlns="http://www.w3.org/2000/svg">
<circle opacity="0.08" cx="36.5" cy="36.5" r="36.5" fill="#2FECA0"/>
<path d="M33 37L35.6667 39.6666L41.6667 33.6666M44.8682 27.6646C45.1428 28.3287 45.6698 28.8565 46.3334 29.1321L48.6603 30.0959C49.3244 30.371 49.852 30.8986 50.127 31.5627C50.4021 32.2268 50.4021 32.9729 50.127 33.637L49.1639 35.9624C48.8887 36.6267 48.8883 37.3737 49.1647 38.0377L50.1262 40.3624C50.2626 40.6913 50.3328 41.0438 50.3329 41.3999C50.3329 41.7559 50.2628 42.1085 50.1266 42.4375C49.9903 42.7664 49.7906 43.0653 49.5388 43.3171C49.287 43.5688 48.988 43.7684 48.659 43.9046L46.3338 44.8678C45.6698 45.1423 45.142 45.6694 44.8664 46.333L43.9026 48.66C43.6275 49.3241 43.0999 49.8517 42.4359 50.1268C41.7718 50.4018 41.0257 50.4018 40.3616 50.1268L38.0364 49.1636C37.3723 48.8892 36.6264 48.8897 35.9628 49.1651L33.6358 50.1276C32.9722 50.4021 32.2267 50.4018 31.5631 50.127C30.8996 49.8521 30.3723 49.3251 30.0971 48.6618L29.1329 46.3341C28.8584 45.67 28.3314 45.1422 27.6678 44.8667L25.3409 43.9028C24.6771 43.6278 24.1497 43.1006 23.8745 42.4368C23.5993 41.7731 23.599 41.0273 23.8735 40.3634L24.8366 38.038C25.111 37.3739 25.1104 36.628 24.8351 35.9643L23.8733 33.6357C23.7369 33.3068 23.6667 32.9542 23.6667 32.5981C23.6666 32.2421 23.7367 31.8895 23.873 31.5605C24.0092 31.2316 24.2089 30.9327 24.4607 30.681C24.7126 30.4292 25.0115 30.2296 25.3405 30.0934L27.6657 29.1302C28.3292 28.8559 28.8566 28.3296 29.1324 27.6667L30.0962 25.3397C30.3713 24.6756 30.8989 24.148 31.563 23.8729C32.227 23.5979 32.9731 23.5979 33.6372 23.8729L35.9625 24.8361C36.6265 25.1105 37.3724 25.1099 38.0361 24.8346L40.364 23.8744C41.0279 23.5995 41.7739 23.5996 42.4378 23.8746C43.1018 24.1496 43.6293 24.6771 43.9044 25.341L44.8685 27.6687L44.8682 27.6646Z" stroke="#2FECA0" stroke-width="3" stroke-linecap="round" stroke-linejoin="round"/>
</svg>
