<svg width="204" height="65" viewBox="0 0 204 65" fill="none" xmlns="http://www.w3.org/2000/svg">
<path d="M196.396 64.9572H7.55371C3.40106 64.9572 0 61.3013 0 56.8375V8.11967C0 3.6559 3.40106 3.09369e-05 7.55371 3.09369e-05H196.396C200.549 3.09369e-05 203.95 3.6559 203.95 8.11967V56.8375C203.95 61.3013 200.549 64.9572 196.396 64.9572Z" fill="black"/>
<path d="M196.396 1.3012C199.894 1.3012 202.74 4.36028 202.74 8.11967V56.8375C202.74 60.5969 199.894 63.656 196.396 63.656H7.55371C4.05634 63.656 1.21048 60.5969 1.21048 56.8375V8.11967C1.21048 4.36028 4.05634 1.3012 7.55371 1.3012H196.396ZM196.396 3.09369e-05H7.55371C3.40106 3.09369e-05 0 3.6559 0 8.11967V56.8375C0 61.3013 3.40106 64.9572 7.55371 64.9572H196.396C200.549 64.9572 203.95 61.3013 203.95 56.8375V8.11967C203.95 3.6559 200.549 3.09369e-05 196.396 3.09369e-05Z" fill="#A6A6A6"/>
<path d="M71.6356 16.635C71.6356 17.991 71.2579 19.077 70.5139 19.887C69.6584 20.8471 68.5442 21.3302 67.1789 21.3302C65.874 21.3302 64.7598 20.839 63.8458 19.8707C62.9299 18.8882 62.4729 17.6825 62.4729 16.2392C62.4729 14.7959 62.9299 13.5902 63.8458 12.6158C64.7598 11.6394 65.874 11.1482 67.1789 11.1482C67.8285 11.1482 68.4479 11.2923 69.039 11.5603C69.6282 11.8302 70.1078 12.1956 70.4553 12.6463L69.6659 13.5029C69.0598 12.7336 68.2345 12.354 67.1789 12.354C66.2271 12.354 65.4019 12.7112 64.7013 13.4318C64.0082 14.1545 63.6607 15.0903 63.6607 16.2392C63.6607 17.3881 64.0082 18.332 64.7013 19.0547C65.4019 19.7672 66.2271 20.1326 67.1789 20.1326C68.1892 20.1326 69.039 19.7672 69.7094 19.0466C70.1513 18.5695 70.4024 17.9119 70.4685 17.0715H67.1789V15.8982H71.5676C71.6205 16.1519 71.6356 16.3975 71.6356 16.635Z" fill="white" stroke="white" stroke-width="0.16" stroke-miterlimit="10"/>
<path d="M78.5982 12.5672H74.4757V15.6527H78.1922V16.8259H74.4757V19.9114H78.5982V21.107H73.3087V11.3716H78.5982V12.5672Z" fill="white" stroke="white" stroke-width="0.16" stroke-miterlimit="10"/>
<path d="M83.5118 21.107H82.3448V12.5672H79.8162V11.3716H86.0423V12.5672H83.5118V21.107Z" fill="white" stroke="white" stroke-width="0.16" stroke-miterlimit="10"/>
<path d="M90.5482 21.107V11.3716H91.7133V21.107H90.5482Z" fill="white" stroke="white" stroke-width="0.16" stroke-miterlimit="10"/>
<path d="M96.8781 21.107H95.7205V12.5672H93.1825V11.3716H99.4161V12.5672H96.8781V21.107Z" fill="white" stroke="white" stroke-width="0.16" stroke-miterlimit="10"/>
<path d="M111.204 19.8545C110.311 20.839 109.204 21.3302 107.884 21.3302C106.556 21.3302 105.45 20.839 104.556 19.8545C103.665 18.872 103.221 17.6662 103.221 16.2392C103.221 14.8122 103.665 13.6064 104.556 12.6239C105.45 11.6394 106.556 11.1482 107.884 11.1482C109.196 11.1482 110.303 11.6394 111.196 12.6321C112.095 13.6227 112.539 14.8203 112.539 16.2392C112.539 17.6662 112.095 18.872 111.204 19.8545ZM105.42 19.0385C106.092 19.7672 106.909 20.1326 107.884 20.1326C108.851 20.1326 109.676 19.7672 110.341 19.0385C111.011 18.3097 111.351 17.3739 111.351 16.2392C111.351 15.1045 111.011 14.1687 110.341 13.44C109.676 12.7112 108.851 12.3458 107.884 12.3458C106.909 12.3458 106.092 12.7112 105.42 13.44C104.749 14.1687 104.409 15.1045 104.409 16.2392C104.409 17.3739 104.749 18.3097 105.42 19.0385Z" fill="white" stroke="white" stroke-width="0.16" stroke-miterlimit="10"/>
<path d="M114.176 21.107V11.3716H115.592L119.996 18.9431H120.047L119.996 17.0716V11.3716H121.161V21.107H119.945L115.334 13.162H115.283L115.334 15.0417V21.107H114.176Z" fill="white" stroke="white" stroke-width="0.16" stroke-miterlimit="10"/>
<path d="M102.934 35.3247C99.386 35.3247 96.4872 38.2275 96.4872 42.2325C96.4872 46.205 99.386 49.1382 102.934 49.1382C106.49 49.1382 109.389 46.205 109.389 42.2325C109.389 38.2275 106.49 35.3247 102.934 35.3247ZM102.934 46.4181C100.987 46.4181 99.3123 44.6907 99.3123 42.2325C99.3123 39.7418 100.987 38.0448 102.934 38.0448C104.881 38.0448 106.564 39.7418 106.564 42.2325C106.564 44.6907 104.881 46.4181 102.934 46.4181ZM88.8674 35.3247C85.3115 35.3247 82.4203 38.2275 82.4203 42.2325C82.4203 46.205 85.3115 49.1382 88.8674 49.1382C92.4214 49.1382 95.3145 46.205 95.3145 42.2325C95.3145 38.2275 92.4214 35.3247 88.8674 35.3247ZM88.8674 46.4181C86.9186 46.4181 85.2379 44.6907 85.2379 42.2325C85.2379 39.7418 86.9186 38.0448 88.8674 38.0448C90.8144 38.0448 92.4894 39.7418 92.4894 42.2325C92.4894 44.6907 90.8144 46.4181 88.8674 46.4181ZM72.1284 37.4419V40.3771H78.6492C78.4584 42.0173 77.9485 43.2231 77.1667 44.0635C76.215 45.0784 74.7326 46.205 72.1284 46.205C68.1155 46.205 64.9732 42.7237 64.9732 38.4102C64.9732 34.0966 68.1155 30.6153 72.1284 30.6153C74.2982 30.6153 75.8769 31.5267 77.0421 32.7081L78.9664 30.6397C77.3367 28.967 75.1688 27.6821 72.1284 27.6821C66.6255 27.6821 62.0008 32.495 62.0008 38.4102C62.0008 44.3253 66.6255 49.1382 72.1284 49.1382C75.1027 49.1382 77.3367 48.0908 79.0929 46.1258C80.8926 44.1913 81.4535 41.4713 81.4535 39.2749C81.4535 38.5928 81.4006 37.9656 81.3062 37.4419H72.1284ZM140.576 39.7174C140.046 38.1727 138.408 35.3247 135.073 35.3247C131.769 35.3247 129.017 38.1239 129.017 42.2325C129.017 46.1015 131.74 49.1382 135.391 49.1382C138.342 49.1382 140.046 47.2037 140.746 46.0771L138.556 44.508C137.825 45.6569 136.83 46.4181 135.391 46.4181C133.961 46.4181 132.936 45.7138 132.279 44.3253L140.873 40.503L140.576 39.7174ZM131.814 42.0173C131.74 39.3541 133.738 37.99 135.17 37.99C136.291 37.99 137.243 38.5928 137.56 39.4556L131.814 42.0173ZM124.829 48.718H127.654V28.4189H124.829V48.718ZM120.202 36.8634H120.108C119.473 36.0555 118.263 35.3247 116.729 35.3247C113.511 35.3247 110.569 38.3614 110.569 42.2548C110.569 46.1258 113.511 49.1382 116.729 49.1382C118.263 49.1382 119.473 48.4014 120.108 47.5691H120.202V48.5597C120.202 51.2006 118.89 52.6195 116.773 52.6195C115.047 52.6195 113.976 51.2798 113.534 50.1532L111.077 51.2554C111.785 53.0864 113.661 55.3396 116.773 55.3396C120.085 55.3396 122.88 53.2447 122.88 48.1476V35.7449H120.202V36.8634ZM116.971 46.4181C115.024 46.4181 113.394 44.6663 113.394 42.2548C113.394 39.8209 115.024 38.0448 116.971 38.0448C118.89 38.0448 120.402 39.8209 120.402 42.2548C120.402 44.6663 118.89 46.4181 116.971 46.4181ZM153.803 28.4189H147.046V48.718H149.864V41.0267H153.803C156.932 41.0267 160.001 38.5928 160.001 34.7218C160.001 30.8528 156.924 28.4189 153.803 28.4189ZM153.876 38.2031H149.864V31.2425H153.876C155.98 31.2425 157.181 33.1202 157.181 34.7218C157.181 36.293 155.98 38.2031 153.876 38.2031ZM171.293 35.2861C169.258 35.2861 167.141 36.2524 166.27 38.3939L168.77 39.5205C169.309 38.3939 170.298 38.0285 171.344 38.0285C172.806 38.0285 174.288 38.9724 174.311 40.639V40.8521C173.801 40.5355 172.71 40.0666 171.367 40.0666C168.674 40.0666 165.93 41.66 165.93 44.6339C165.93 47.3539 168.136 49.1057 170.615 49.1057C172.511 49.1057 173.558 48.1862 174.215 47.1164H174.311V48.6856H177.032V40.8988C177.032 37.2998 174.532 35.2861 171.293 35.2861ZM170.954 46.41C170.032 46.41 168.748 45.9188 168.748 44.6907C168.748 43.1195 170.349 42.5167 171.735 42.5167C172.976 42.5167 173.558 42.811 174.311 43.1987C174.09 45.0784 172.585 46.41 170.954 46.41ZM186.947 35.7307L183.708 44.5303H183.612L180.263 35.7307H177.225L182.256 48.0279L179.385 54.8707H182.329L190.081 35.7307H186.947ZM161.549 48.718H164.374V28.4189H161.549V48.718Z" fill="white"/>
<path d="M15.7646 12.2424C15.3208 12.7418 15.064 13.5192 15.064 14.5261V50.4393C15.064 51.4461 15.3208 52.2235 15.7646 52.7229L15.8741 52.8325L34.596 32.7161V32.2411L15.8741 12.1247L15.7646 12.2424Z" fill="url(#paint0_linear_2_576)"/>
<path d="M40.8296 39.4247L34.5959 32.7158V32.2408L40.8372 25.532L40.9769 25.6193L48.3682 30.1399C50.4776 31.4228 50.4776 33.5339 48.3682 34.8249L40.9769 39.3374L40.8296 39.4247Z" fill="url(#paint1_linear_2_576)"/>
<path d="M40.9769 39.3377L34.5959 32.4787L15.7646 52.723C16.4652 53.5146 17.6077 53.61 18.9069 52.8184L40.9769 39.3377Z" fill="url(#paint2_linear_2_576)"/>
<path d="M40.9769 25.6197L18.9069 12.1391C17.6077 11.3555 16.4652 11.4509 15.7646 12.2426L34.5959 32.4788L40.9769 25.6197Z" fill="url(#paint3_linear_2_576)"/>
<defs>
<linearGradient id="paint0_linear_2_576" x1="32.9337" y1="50.8132" x2="5.75127" y2="25.5254" gradientUnits="userSpaceOnUse">
<stop stop-color="#00A0FF"/>
<stop offset="0.0066" stop-color="#00A1FF"/>
<stop offset="0.2601" stop-color="#00BEFF"/>
<stop offset="0.5122" stop-color="#00D2FF"/>
<stop offset="0.7604" stop-color="#00DFFF"/>
<stop offset="1" stop-color="#00E3FF"/>
</linearGradient>
<linearGradient id="paint1_linear_2_576" x1="51.115" y1="32.4761" x2="14.5597" y2="32.4761" gradientUnits="userSpaceOnUse">
<stop stop-color="#FFE000"/>
<stop offset="0.4087" stop-color="#FFBD00"/>
<stop offset="0.7754" stop-color="#FFA500"/>
<stop offset="1" stop-color="#FF9C00"/>
</linearGradient>
<linearGradient id="paint2_linear_2_576" x1="37.5071" y1="28.75" x2="0.645545" y2="-5.54238" gradientUnits="userSpaceOnUse">
<stop stop-color="#FF3A44"/>
<stop offset="1" stop-color="#C31162"/>
</linearGradient>
<linearGradient id="paint3_linear_2_576" x1="11.0243" y1="64.6712" x2="27.4846" y2="49.3583" gradientUnits="userSpaceOnUse">
<stop stop-color="#32A071"/>
<stop offset="0.0685" stop-color="#2DA771"/>
<stop offset="0.4762" stop-color="#15CF74"/>
<stop offset="0.8009" stop-color="#06E775"/>
<stop offset="1" stop-color="#00F076"/>
</linearGradient>
</defs>
</svg>
