<svg width="37" height="37" viewBox="0 0 37 37" fill="none" xmlns="http://www.w3.org/2000/svg">
<g clip-path="url(#clip0_7_90)">
<path d="M28.09 11.5896C27.8489 11.3552 27.5106 11.2488 27.1795 11.3032C26.8479 11.3574 26.5614 11.5657 26.4076 11.8645C25.8785 12.8924 25.2064 13.8371 24.4156 14.6721C24.4944 14.0689 24.5341 13.4621 24.5341 12.8536C24.5341 11.6861 24.3776 10.4846 24.0689 9.28216C23.0537 5.33261 20.3917 1.99253 16.7657 0.118401C16.45 -0.0447115 16.0739 -0.0389846 15.7633 0.133672C15.4527 0.3064 15.2493 0.623079 15.2214 0.977302C14.9388 4.56648 13.09 7.83183 10.1464 9.93822C10.1075 9.96629 10.0688 9.99471 10.0301 10.023C9.95003 10.0816 9.87452 10.137 9.80396 10.1836C9.79293 10.1909 9.78197 10.1984 9.77122 10.2061C7.91993 11.5316 6.39239 13.2985 5.35355 15.3163C4.29795 17.3687 3.76273 19.5712 3.76273 21.8623C3.76273 23.0295 3.91919 24.2309 4.22781 25.4336C5.85646 31.7726 11.5611 36.1999 18.1004 36.1999C26.0058 36.1999 32.4372 29.768 32.4372 21.8623C32.4372 17.9637 30.8934 14.3154 28.09 11.5896Z" fill="#2FECA0"/>
<circle cx="17.5515" cy="21.9394" r="4.38788" fill="white"/>
</g>
<defs>
<clipPath id="clip0_7_90">
<rect width="36.2" height="36.2" fill="white"/>
</clipPath>
</defs>
</svg>
