<svg width="110" height="32" viewBox="0 0 110 32" fill="none" xmlns="http://www.w3.org/2000/svg">
<path d="M16.771 7.595C16.213 6.52033 15.438 5.71433 14.446 5.177C13.454 4.619 12.307 4.34 11.005 4.34C9.579 4.34 8.308 4.66033 7.192 5.301C6.076 5.94167 5.19767 6.851 4.557 8.029C3.937 9.207 3.627 10.571 3.627 12.121C3.627 13.671 3.937 15.0453 4.557 16.244C5.19767 17.422 6.076 18.3313 7.192 18.972C8.308 19.6127 9.579 19.933 11.005 19.933C12.927 19.933 14.4873 19.3957 15.686 18.321C16.8847 17.2463 17.6183 15.7893 17.887 13.95H9.796V11.129H21.669V13.888C21.4417 15.562 20.8423 17.1017 19.871 18.507C18.9203 19.9123 17.67 21.0387 16.12 21.886C14.5907 22.7127 12.8857 23.126 11.005 23.126C8.97967 23.126 7.13 22.661 5.456 21.731C3.782 20.7803 2.449 19.468 1.457 17.794C0.485667 16.12 0 14.229 0 12.121C0 10.013 0.485667 8.122 1.457 6.448C2.449 4.774 3.782 3.472 5.456 2.542C7.15067 1.59133 9.00033 1.116 11.005 1.116C13.299 1.116 15.3347 1.68433 17.112 2.821C18.91 3.937 20.212 5.52833 21.018 7.595H16.771Z" fill="black"/>
<path d="M32.5636 23.219C30.9516 23.219 29.4946 22.8573 28.1926 22.134C26.8906 21.39 25.8676 20.3567 25.1236 19.034C24.3796 17.6907 24.0076 16.1407 24.0076 14.384C24.0076 12.648 24.3899 11.1083 25.1546 9.765C25.9192 8.42167 26.9629 7.38833 28.2856 6.665C29.6082 5.94167 31.0859 5.58 32.7186 5.58C34.3512 5.58 35.8289 5.94167 37.1516 6.665C38.4742 7.38833 39.5179 8.42167 40.2826 9.765C41.0472 11.1083 41.4296 12.648 41.4296 14.384C41.4296 16.12 41.0369 17.6597 40.2516 19.003C39.4662 20.3463 38.3916 21.39 37.0276 22.134C35.6842 22.8573 34.1962 23.219 32.5636 23.219ZM32.5636 20.15C33.4729 20.15 34.3202 19.933 35.1056 19.499C35.9116 19.065 36.5626 18.414 37.0586 17.546C37.5546 16.678 37.8026 15.624 37.8026 14.384C37.8026 13.144 37.5649 12.1003 37.0896 11.253C36.6142 10.385 35.9839 9.734 35.1986 9.3C34.4132 8.866 33.5659 8.649 32.6566 8.649C31.7472 8.649 30.8999 8.866 30.1146 9.3C29.3499 9.734 28.7402 10.385 28.2856 11.253C27.8309 12.1003 27.6036 13.144 27.6036 14.384C27.6036 16.2233 28.0686 17.6493 28.9986 18.662C29.9492 19.654 31.1376 20.15 32.5636 20.15Z" fill="black"/>
<path d="M52.3321 23.219C50.7201 23.219 49.2631 22.8573 47.9611 22.134C46.6591 21.39 45.6361 20.3567 44.8921 19.034C44.1481 17.6907 43.7761 16.1407 43.7761 14.384C43.7761 12.648 44.1585 11.1083 44.9231 9.765C45.6878 8.42167 46.7315 7.38833 48.0541 6.665C49.3768 5.94167 50.8545 5.58 52.4871 5.58C54.1198 5.58 55.5975 5.94167 56.9201 6.665C58.2428 7.38833 59.2864 8.42167 60.0511 9.765C60.8158 11.1083 61.1981 12.648 61.1981 14.384C61.1981 16.12 60.8055 17.6597 60.0201 19.003C59.2348 20.3463 58.1601 21.39 56.7961 22.134C55.4528 22.8573 53.9648 23.219 52.3321 23.219ZM52.3321 20.15C53.2415 20.15 54.0888 19.933 54.8741 19.499C55.6801 19.065 56.3311 18.414 56.8271 17.546C57.3231 16.678 57.5711 15.624 57.5711 14.384C57.5711 13.144 57.3335 12.1003 56.8581 11.253C56.3828 10.385 55.7524 9.734 54.9671 9.3C54.1818 8.866 53.3344 8.649 52.4251 8.649C51.5158 8.649 50.6684 8.866 49.8831 9.3C49.1185 9.734 48.5088 10.385 48.0541 11.253C47.5995 12.1003 47.3721 13.144 47.3721 14.384C47.3721 16.2233 47.8371 17.6493 48.7671 18.662C49.7178 19.654 50.9061 20.15 52.3321 20.15Z" fill="black"/>
<path d="M71.5737 5.58C72.8963 5.58 74.064 5.84867 75.0767 6.386C76.11 6.90267 76.916 7.55367 77.4947 8.339V5.859H81.0597V23.219C81.0597 24.7897 80.729 26.1847 80.0677 27.404C79.4063 28.644 78.4453 29.6153 77.1847 30.318C75.9447 31.0207 74.4567 31.372 72.7207 31.372C70.406 31.372 68.484 30.8243 66.9547 29.729C65.4253 28.6543 64.5573 27.187 64.3507 25.327H67.8537C68.1223 26.2157 68.6907 26.9287 69.5587 27.466C70.4473 28.024 71.5013 28.303 72.7207 28.303C74.1467 28.303 75.2937 27.869 76.1617 27.001C77.0503 26.133 77.4947 24.8723 77.4947 23.219V20.367C76.8953 21.173 76.079 21.855 75.0457 22.413C74.033 22.9503 72.8757 23.219 71.5737 23.219C70.0857 23.219 68.7217 22.847 67.4817 22.103C66.2623 21.3383 65.291 20.2843 64.5677 18.941C63.865 17.577 63.5137 16.0373 63.5137 14.322C63.5137 12.6067 63.865 11.0877 64.5677 9.765C65.291 8.44233 66.2623 7.41933 67.4817 6.696C68.7217 5.952 70.0857 5.58 71.5737 5.58ZM77.4947 14.384C77.4947 13.206 77.2467 12.183 76.7507 11.315C76.2753 10.447 75.645 9.78567 74.8597 9.331C74.0743 8.87633 73.227 8.649 72.3177 8.649C71.4083 8.649 70.561 8.87633 69.7757 9.331C68.9903 9.765 68.3497 10.416 67.8537 11.284C67.3783 12.1313 67.1407 13.144 67.1407 14.322C67.1407 15.5 67.3783 16.5333 67.8537 17.422C68.3497 18.3107 68.9903 18.9927 69.7757 19.468C70.5817 19.9227 71.429 20.15 72.3177 20.15C73.227 20.15 74.0743 19.9227 74.8597 19.468C75.645 19.0133 76.2753 18.352 76.7507 17.484C77.2467 16.5953 77.4947 15.562 77.4947 14.384Z" fill="black"/>
<path d="M89.2354 0V22.94H85.7014V0H89.2354Z" fill="black"/>
<path d="M109.53 13.981C109.53 14.6217 109.489 15.2003 109.406 15.717H96.3553C96.4586 17.081 96.9649 18.1763 97.8743 19.003C98.7836 19.8297 99.8996 20.243 101.222 20.243C103.124 20.243 104.467 19.4473 105.252 17.856H109.065C108.549 19.4267 107.608 20.7183 106.244 21.731C104.901 22.723 103.227 23.219 101.222 23.219C99.5896 23.219 98.1223 22.8573 96.8203 22.134C95.5389 21.39 94.5263 20.3567 93.7823 19.034C93.0589 17.6907 92.6973 16.1407 92.6973 14.384C92.6973 12.6273 93.0486 11.0877 93.7513 9.765C94.4746 8.42167 95.4769 7.38833 96.7583 6.665C98.0603 5.94167 99.5483 5.58 101.222 5.58C102.834 5.58 104.271 5.93133 105.531 6.634C106.792 7.33667 107.774 8.32867 108.476 9.61C109.179 10.8707 109.53 12.3277 109.53 13.981ZM105.841 12.865C105.821 11.563 105.356 10.5193 104.446 9.734C103.537 8.94867 102.411 8.556 101.067 8.556C99.8479 8.556 98.8043 8.94867 97.9363 9.734C97.0683 10.4987 96.5516 11.5423 96.3863 12.865H105.841Z" fill="black"/>
</svg>
